<?xml version="1.0" encoding="UTF-8" standalone="yes"?>
<svg xmlns="http://www.w3.org/2000/svg" xmlns:xlink="http://www.w3.org/1999/xlink" width="334.589020pt" height="235.425461pt" version="1.1" viewBox="-263.854980 585.793335 334.589020 235.425476">
  <!--
	Exported with Concepts: Smarter Sketching
	Version: 890 on iOS 14.4
	https://concepts.app/
	-->
  <title>未命名 21</title>
  <desc>Drawing exported from Concepts: Smarter Sketching</desc>
  <g id="钢笔" opacity="1.000">
    <path id="STROKE_5374baa4-d595-4546-a6b8-ab21913c6a81" opacity="0.790" fill="none" stroke="#000000" stroke-width="1.700" stroke-opacity="1.000" stroke-linecap="round" stroke-linejoin="round" d="M -255.435 641.419 Q -255.425 641.941 -255.386 639.980 Q -255.386 640.878 -255.386 640.773 Q -255.436 640.203 -255.286 646.521 Q -255.136 652.840 -255.130 656.597 Q -255.124 660.354 -255.302 661.981 Q -255.481 663.609 -255.575 665.034 Q -255.669 666.458 -255.593 668.594 Q -255.517 670.730 -255.612 677.627 Q -255.707 684.523 -256.007 689.145 Q -256.308 693.766 -256.604 696.960 Q -256.901 700.153 -256.990 702.403 Q -257.080 704.652 -257.263 705.880 Q -257.445 707.107 -257.628 718.394 Q -257.810 729.682 -257.833 735.758 Q -257.856 741.834 -257.848 744.800 Q -257.839 747.766 -257.834 749.628 Q -257.829 751.489 -257.875 751.957 Q -257.921 752.424 -257.552 757.150 Q -257.182 761.875 -256.640 770.200 Q -256.665 770.103 -256.797 769.923 Q -256.929 769.744 -257.169 769.481 "></path>
    <path id="STROKE_e9b18a8f-6c2a-4b1b-8234-b48b107adfd8" opacity="0.790" fill="none" stroke="#000000" stroke-width="1.548" stroke-opacity="1.000" stroke-linecap="round" stroke-linejoin="round" d="M -257.747 639.113 Q -257.722 639.113 -257.698 639.113 Q -257.698 639.090 -257.698 638.679 Q -257.717 638.641 -257.167 638.581 Q -256.617 638.520 -253.788 639.241 Q -250.959 639.961 -246.330 640.035 Q -241.701 640.109 -238.947 640.155 Q -236.193 640.201 -232.793 640.401 Q -229.394 640.601 -221.900 639.628 Q -214.405 638.656 -206.590 638.190 Q -198.774 637.723 -192.636 637.403 Q -186.498 637.083 -179.459 637.472 Q -172.420 637.862 -167.843 638.306 Q -163.267 638.750 -160.470 638.696 Q -157.673 638.643 -153.489 638.785 Q -149.304 638.927 -142.544 638.942 Q -135.784 638.956 -132.080 639.052 Q -128.376 639.148 -119.274 639.121 Q -110.171 639.094 -105.416 638.920 Q -100.662 638.746 -98.456 638.724 Q -96.250 638.703 -93.316 638.763 Q -90.382 638.823 -84.184 638.518 Q -77.986 638.214 -74.679 638.098 Q -71.371 637.982 -68.794 637.948 Q -66.218 637.914 -62.684 638.246 Q -62.708 638.246 -62.804 638.151 Q -62.899 638.057 -63.065 637.867 "></path>
    <path id="STROKE_a6502ca7-0c37-41c1-aa60-423821bc8f1b" opacity="0.790" fill="none" stroke="#000000" stroke-width="1.458" stroke-opacity="1.000" stroke-linecap="round" stroke-linejoin="round" d="M -63.262 635.995 Q -63.309 635.847 -63.618 635.709 Q -63.883 636.877 -63.791 636.641 Q -63.594 637.305 -64.103 643.904 Q -64.611 650.503 -64.963 653.994 Q -65.315 657.485 -65.748 658.971 Q -66.181 660.457 -66.368 667.844 Q -66.556 675.231 -66.486 679.605 Q -66.417 683.979 -66.573 685.717 Q -66.728 687.454 -66.224 693.761 Q -65.720 700.067 -65.332 705.251 Q -64.944 710.435 -65.036 714.155 Q -65.129 717.875 -65.084 720.568 Q -65.039 723.261 -65.100 728.937 Q -65.161 734.612 -65.146 737.340 Q -65.132 740.069 -63.929 748.235 Q -62.727 756.400 -62.358 760.552 Q -61.989 764.703 -61.970 764.915 "></path>
    <path id="STROKE_7700b48a-cab1-40ea-8264-a9f395181eb5" opacity="0.790" fill="none" stroke="#000000" stroke-width="1.598" stroke-opacity="1.000" stroke-linecap="round" stroke-linejoin="round" d="M -259.284 768.614 Q -258.630 768.128 -258.811 768.247 Q -258.992 768.366 -258.837 768.240 Q -258.682 768.115 -258.442 768.010 Q -258.201 767.905 -258.206 767.928 Q -258.211 767.952 -258.145 767.906 Q -258.079 767.859 -258.194 767.867 Q -258.310 767.874 -253.552 768.626 Q -248.795 769.379 -241.218 769.432 Q -233.640 769.486 -229.756 769.484 Q -225.871 769.482 -221.188 769.472 Q -216.505 769.462 -213.922 769.463 Q -211.340 769.463 -200.696 769.589 Q -190.053 769.714 -178.739 769.538 Q -167.425 769.363 -162.076 769.101 Q -156.727 768.839 -154.155 768.851 Q -151.584 768.864 -146.653 768.808 Q -141.723 768.752 -137.982 768.775 Q -134.242 768.798 -131.406 768.871 Q -128.569 768.943 -123.912 768.349 Q -119.254 767.754 -113.922 767.564 Q -108.591 767.375 -105.384 767.278 Q -102.178 767.181 -97.225 767.105 Q -92.272 767.029 -90.212 767.007 Q -88.152 766.984 -86.305 766.825 Q -84.459 766.665 -83.526 766.697 Q -82.594 766.730 -81.503 767.118 Q -80.413 767.507 -79.666 767.542 Q -78.919 767.577 -79.068 767.602 Q -79.217 767.627 -73.914 767.600 Q -68.612 767.572 -64.701 767.770 Q -60.790 767.968 -60.716 767.894 "></path>
    <path id="STROKE_6b6fa8c6-40ef-445e-a3cc-c0d7cf63c628" opacity="0.790" fill="none" stroke="#000000" stroke-width="1.700" stroke-opacity="1.000" stroke-linecap="round" stroke-linejoin="round" d="M -61.343 763.144 Q -61.429 762.590 -61.241 764.619 Q -61.054 766.649 -60.913 766.843 "></path>
    <path id="STROKE_696665fa-e86a-446f-b3e9-73caf28ed0c3" opacity="0.790" fill="none" stroke="#000000" stroke-width="1.675" stroke-opacity="1.000" stroke-linecap="round" stroke-linejoin="round" d="M -60.519 593.769 Q -60.544 593.769 -60.765 593.746 Q -60.765 593.723 -60.765 593.631 Q -60.765 594.368 -60.765 594.299 Q -60.765 595.130 -60.765 595.088 Q -60.762 596.391 -60.772 596.051 Q -60.782 595.710 -60.661 597.462 Q -60.540 599.214 -60.466 600.479 Q -60.392 601.743 -60.290 602.534 Q -60.188 603.324 -60.140 603.554 Q -60.091 603.784 -59.966 604.672 Q -59.841 605.560 -59.802 606.246 Q -59.762 606.933 -59.864 607.332 Q -59.965 607.731 -59.632 610.924 Q -59.299 614.117 -59.085 618.388 Q -58.872 622.658 -58.925 626.986 Q -58.978 631.314 -58.822 634.329 Q -58.666 637.344 -58.613 642.781 Q -58.560 648.218 -58.553 650.768 Q -58.546 653.317 -58.548 654.863 Q -58.550 656.409 -58.547 659.398 Q -58.545 662.387 -58.504 665.302 Q -58.463 668.217 -58.920 672.636 Q -59.377 677.054 -59.588 680.418 Q -59.798 683.782 -59.792 691.166 Q -59.787 698.550 -59.872 702.360 Q -59.958 706.171 -59.603 713.535 Q -59.248 720.900 -59.066 724.868 Q -58.884 728.836 -58.917 730.920 Q -58.949 733.004 -58.939 738.915 Q -58.928 744.826 -58.932 749.867 Q -58.936 754.907 -58.937 757.537 Q -58.937 760.166 -58.906 765.745 Q -58.875 771.323 -58.890 774.254 Q -58.904 777.186 -58.882 778.111 Q -58.860 779.037 -58.879 781.600 Q -58.897 784.163 -58.977 786.034 Q -59.058 787.906 -59.069 788.906 Q -59.080 789.907 -59.077 790.321 Q -59.073 790.735 -59.092 791.097 Q -59.110 791.459 -59.113 791.476 Q -59.117 791.492 -59.123 791.547 Q -59.130 791.603 -59.129 792.029 Q -59.128 792.454 -59.129 792.757 Q -59.129 793.059 -59.135 793.324 Q -59.141 793.590 -59.126 793.379 Q -59.110 793.168 -59.165 794.140 Q -59.220 795.112 -59.308 795.802 Q -59.396 796.491 -59.398 796.865 Q -59.400 797.240 -59.405 797.644 Q -59.410 798.049 -59.418 798.419 Q -59.425 798.789 -59.435 799.175 Q -59.444 799.562 -59.493 800.128 Q -59.542 800.693 -59.613 801.715 Q -59.684 802.736 -59.735 803.884 Q -59.786 805.031 -59.845 805.643 Q -59.903 806.254 -59.897 805.968 Q -59.890 805.682 -59.975 807.181 Q -60.060 808.679 -60.089 814.575 Q -60.113 814.575 -60.138 814.575 Q -60.138 814.552 -60.175 814.375 Q -60.212 814.197 -60.286 814.003 "></path>
    <path id="STROKE_e5f7b3c7-dc87-4348-b16a-1d537abb4e1f" opacity="0.790" fill="none" stroke="#000000" stroke-width="1.680" stroke-opacity="1.000" stroke-linecap="round" stroke-linejoin="round" d="M -61.823 592.764 Q -62.086 591.640 -61.798 591.970 Q -60.997 591.711 -61.103 591.758 Q -61.376 591.820 -59.012 591.465 Q -56.648 591.110 -53.378 590.648 Q -50.109 590.186 -44.874 590.703 Q -39.638 591.220 -34.126 591.486 Q -28.613 591.751 -22.285 591.499 Q -15.957 591.247 -12.377 591.012 Q -8.796 590.778 -5.652 590.855 Q -2.509 590.932 3.026 590.822 Q 8.561 590.712 11.235 590.541 Q 13.908 590.369 15.855 590.424 Q 17.801 590.478 22.715 590.597 Q 27.629 590.715 31.187 590.678 Q 34.745 590.641 37.720 590.563 Q 40.695 590.485 42.435 590.497 Q 44.176 590.509 48.265 590.846 Q 52.355 591.184 54.208 591.399 Q 56.061 591.613 56.987 591.628 Q 57.913 591.643 60.428 591.754 Q 62.944 591.866 64.189 592.181 Q 65.434 592.496 65.575 592.616 "></path>
    <path id="STROKE_ab389754-8c4a-4087-a2cc-9863fb3226e9" opacity="0.790" fill="none" stroke="#000000" stroke-width="1.590" stroke-opacity="1.000" stroke-linecap="round" stroke-linejoin="round" d="M 66.104 593.003 Q 66.113 593.035 66.079 592.478 Q 65.443 592.590 65.575 592.736 Q 65.061 593.940 65.063 594.679 Q 65.065 595.417 65.156 596.668 Q 65.247 597.918 64.830 601.529 Q 64.412 605.139 64.262 610.107 Q 64.113 615.074 64.172 618.165 Q 64.231 621.256 64.087 623.799 Q 63.944 626.343 63.760 629.317 Q 63.575 632.292 63.442 637.882 Q 63.308 643.472 63.286 646.315 Q 63.263 649.157 63.273 650.706 Q 63.282 652.254 63.250 661.788 Q 63.218 671.322 63.276 677.543 Q 63.334 683.765 62.985 690.837 Q 62.636 697.910 62.457 702.074 Q 62.278 706.238 62.091 708.513 Q 61.904 710.788 61.521 714.597 Q 61.139 718.407 60.923 722.117 Q 60.708 725.827 60.569 732.190 Q 60.431 738.553 60.268 741.910 Q 60.105 745.267 60.072 746.673 Q 60.039 748.080 59.843 751.467 Q 59.648 754.855 59.649 765.869 Q 59.651 776.883 59.740 782.284 Q 59.830 787.684 59.813 790.609 Q 59.797 793.533 60.450 797.940 Q 61.104 802.347 61.335 807.133 Q 61.566 811.919 61.640 812.233 "></path>
    <path id="STROKE_9c9365f3-2ec1-48f1-9555-01a673698da7" opacity="0.790" fill="none" stroke="#000000" stroke-width="1.511" stroke-opacity="1.000" stroke-linecap="round" stroke-linejoin="round" d="M -62.782 816.023 Q -62.782 815.996 -62.782 815.968 Q -62.287 816.278 -52.622 816.360 Q -42.956 816.443 -37.644 816.335 Q -32.331 816.228 -29.598 816.353 Q -26.864 816.479 -25.864 816.709 Q -24.865 816.939 -16.142 816.708 Q -7.419 816.476 -1.796 816.196 Q 3.828 815.916 8.702 814.897 Q 13.576 813.878 15.767 813.305 Q 17.957 812.731 19.341 812.652 Q 20.726 812.573 23.608 812.514 Q 26.490 812.455 29.381 812.593 Q 32.271 812.732 33.665 812.992 Q 35.058 813.251 36.191 813.172 Q 37.323 813.094 40.852 813.256 Q 44.380 813.418 46.130 813.502 Q 47.879 813.585 50.197 813.870 Q 52.515 814.156 54.046 814.087 Q 55.578 814.019 65.341 814.151 Q 65.341 814.054 65.341 813.957 "></path>
    <path id="STROKE_65cd0778-41e4-47bd-bbb8-483f69672639" opacity="0.790" fill="none" stroke="#000000" stroke-width="1.469" stroke-opacity="1.000" stroke-linecap="round" stroke-linejoin="round" d="M -246.954 650.120 Q -246.900 649.979 -247.107 649.521 Q -247.141 649.521 -247.175 649.521 Q -247.213 649.580 -247.183 649.664 Q -247.153 649.749 -247.301 652.721 Q -247.448 655.693 -247.460 657.572 Q -247.472 659.450 -247.538 660.665 Q -247.605 661.880 -246.509 662.763 Q -246.327 662.680 -246.225 662.597 "></path>
    <path id="STROKE_a4fe544d-d6b8-4856-9adf-c2f60e136cad" opacity="0.790" fill="none" stroke="#000000" stroke-width="1.700" stroke-opacity="1.000" stroke-linecap="round" stroke-linejoin="round" d="M -248.482 649.490 Q -248.426 649.549 -248.520 649.477 Q -248.614 649.404 -248.408 649.094 Q -248.202 648.783 -247.891 648.764 Q -247.580 648.744 -247.376 648.716 Q -247.173 648.689 -246.992 648.704 Q -246.812 648.718 -246.625 648.672 Q -246.439 648.626 -245.217 648.967 Q -243.994 649.309 -243.021 649.985 Q -242.047 650.661 -241.604 651.416 Q -241.161 652.171 -241.278 653.319 Q -241.395 654.467 -242.603 655.923 Q -243.811 657.379 -244.967 658.386 Q -246.124 659.393 -246.582 659.589 Q -247.039 659.785 -247.124 659.817 "></path>
    <path id="STROKE_068ef45c-b3c0-4c28-8f85-ff0c9f65e72e" opacity="0.790" fill="none" stroke="#000000" stroke-width="1.700" stroke-opacity="1.000" stroke-linecap="round" stroke-linejoin="round" d="M -236.977 652.601 Q -236.977 652.585 -236.977 652.200 Q -236.977 652.269 -237.020 652.575 Q -237.062 652.881 -237.147 653.097 "></path>
    <path id="STROKE_63cb0add-2b4f-420a-aa19-662d1f6e6941" opacity="0.790" fill="none" stroke="#000000" stroke-width="1.700" stroke-opacity="1.000" stroke-linecap="round" stroke-linejoin="round" d="M -237.308 657.596 Q -237.396 657.224 -237.252 658.769 Q -237.109 660.313 -237.011 660.415 "></path>
    <path id="STROKE_a70a642e-1b18-46ad-9dfb-782bfd6c2271" opacity="0.790" fill="none" stroke="#000000" stroke-width="1.700" stroke-opacity="1.000" stroke-linecap="round" stroke-linejoin="round" d="M -229.885 654.287 Q -229.914 653.849 -229.953 653.925 Q -230.594 653.790 -230.462 653.975 Q -230.667 654.031 -230.932 654.900 Q -231.197 655.770 -231.242 656.351 Q -231.286 656.933 -231.087 657.180 Q -230.888 657.428 -230.668 657.475 Q -230.448 657.522 -229.777 657.713 Q -229.106 657.905 -229.064 658.264 Q -229.022 658.622 -229.145 658.899 Q -229.268 659.176 -229.474 659.319 Q -229.680 659.462 -229.678 659.532 Q -229.675 659.602 -230.334 659.916 Q -230.992 660.230 -231.107 660.249 "></path>
    <path id="STROKE_7ef417cf-5c3f-4a27-b593-95b59c83d84f" opacity="0.790" fill="none" stroke="#000000" stroke-width="1.488" stroke-opacity="1.000" stroke-linecap="round" stroke-linejoin="round" d="M -225.473 655.312 Q -225.473 655.296 -225.507 655.216 Q -225.668 655.387 -225.410 669.714 Q -225.218 669.856 -224.941 669.553 Q -224.663 669.250 -224.549 668.986 "></path>
    <path id="STROKE_2cfacfb1-9593-4b42-a37c-84ac6479b9a3" opacity="0.790" fill="none" stroke="#000000" stroke-width="1.700" stroke-opacity="1.000" stroke-linecap="round" stroke-linejoin="round" d="M -225.075 654.854 Q -225.078 654.431 -225.058 654.539 Q -225.311 654.454 -224.178 654.601 Q -223.045 654.748 -222.293 655.153 Q -221.540 655.557 -221.229 655.879 Q -220.918 656.200 -221.087 657.162 Q -221.255 658.125 -224.116 659.918 Q -224.230 659.817 -224.311 659.715 "></path>
    <path id="STROKE_b37f6b60-520e-492a-8895-408def90595d" opacity="0.790" fill="none" stroke="#000000" stroke-width="1.666" stroke-opacity="1.000" stroke-linecap="round" stroke-linejoin="round" d="M -217.286 646.276 Q -217.320 646.245 -217.498 646.245 Q -217.541 646.240 -217.645 649.102 Q -217.749 651.964 -217.748 653.959 Q -217.747 655.953 -217.417 656.875 Q -217.087 657.796 -216.955 657.997 "></path>
    <path id="STROKE_b008c964-d95f-482d-811e-08d1636423e7" opacity="0.790" fill="none" stroke="#000000" stroke-width="1.700" stroke-opacity="1.000" stroke-linecap="round" stroke-linejoin="round" d="M -211.152 655.114 Q -211.241 654.796 -211.516 654.654 Q -211.792 654.511 -212.124 654.406 Q -212.457 654.300 -212.688 654.304 Q -212.918 654.307 -213.236 654.329 Q -213.553 654.350 -214.094 655.248 Q -214.635 656.145 -214.701 656.832 Q -214.766 657.518 -214.828 658.066 Q -214.890 658.613 -214.440 658.653 Q -213.989 658.692 -213.586 658.428 Q -213.184 658.165 -212.957 657.702 Q -212.731 657.239 -210.737 656.012 Q -210.481 656.314 -210.603 657.059 Q -210.724 657.804 -210.342 658.356 Q -209.961 658.907 -209.863 658.990 "></path>
    <path id="STROKE_876ae7e4-8365-4565-a28d-51fcc3ed0e32" opacity="0.790" fill="none" stroke="#000000" stroke-width="1.700" stroke-opacity="1.000" stroke-linecap="round" stroke-linejoin="round" d="M -206.715 654.555 Q -206.738 654.501 -205.855 656.041 Q -204.972 657.580 -204.824 657.761 "></path>
    <path id="STROKE_279cf5d3-4143-44d1-b959-e428ade322af" opacity="0.790" fill="none" stroke="#000000" stroke-width="1.358" stroke-opacity="1.000" stroke-linecap="round" stroke-linejoin="round" d="M -201.769 653.097 Q -201.487 653.346 -203.528 657.540 Q -205.568 661.734 -207.071 665.716 Q -208.574 669.698 -209.019 671.543 Q -209.464 673.389 -209.566 673.554 "></path>
    <path id="STROKE_461843c6-3394-456d-97dd-40f4d50fb39a" opacity="0.790" fill="none" stroke="#000000" stroke-width="1.700" stroke-opacity="1.000" stroke-linecap="round" stroke-linejoin="round" d="M -192.658 648.395 Q -192.561 648.432 -192.454 647.899 Q -192.273 647.552 -192.083 651.888 Q -191.894 656.225 -191.826 656.572 "></path>
    <path id="STROKE_19fd725c-3f8d-41b8-a940-79ce571452ea" opacity="0.790" fill="none" stroke="#000000" stroke-width="1.700" stroke-opacity="1.000" stroke-linecap="round" stroke-linejoin="round" d="M -49.806 599.146 Q -49.895 599.337 -49.737 602.180 Q -49.579 605.023 -49.592 606.802 Q -49.605 608.581 -49.317 609.234 Q -49.030 609.887 -48.949 609.938 "></path>
    <path id="STROKE_3b41928d-9afa-474c-8ab6-c5eeb0d1da1c" opacity="0.790" fill="none" stroke="#000000" stroke-width="1.700" stroke-opacity="1.000" stroke-linecap="round" stroke-linejoin="round" d="M -50.866 599.445 Q -50.962 599.383 -50.176 599.216 Q -49.389 599.050 -47.919 599.497 Q -46.448 599.944 -45.581 600.530 Q -44.714 601.116 -44.366 601.625 Q -44.019 602.133 -43.804 602.644 Q -43.590 603.155 -43.931 604.022 Q -44.273 604.889 -44.729 605.357 Q -45.185 605.825 -45.473 606.125 Q -45.760 606.424 -46.004 606.667 Q -46.247 606.910 -46.896 607.466 Q -47.545 608.023 -48.228 608.514 Q -48.911 609.005 -49.482 609.437 Q -50.052 609.868 -50.069 609.900 "></path>
    <path id="STROKE_5f57d66c-7827-4bdf-8c6e-33274a39c5df" opacity="0.790" fill="none" stroke="#000000" stroke-width="1.700" stroke-opacity="1.000" stroke-linecap="round" stroke-linejoin="round" d="M -39.600 603.448 Q -39.549 603.349 -39.201 602.888 Q -39.072 602.644 -39.260 603.418 Q -39.447 604.192 -39.566 604.408 "></path>
    <path id="STROKE_8c129d16-fa04-4b4b-a960-8e0fc9ee3ade" opacity="0.790" fill="none" stroke="#000000" stroke-width="1.700" stroke-opacity="1.000" stroke-linecap="round" stroke-linejoin="round" d="M -40.194 607.583 Q -40.306 607.748 -40.099 608.569 Q -39.893 609.391 -39.795 609.441 "></path>
    <path id="STROKE_413c8117-20fd-4699-99a9-4bdab8b14ed7" opacity="0.790" fill="none" stroke="#000000" stroke-width="1.700" stroke-opacity="1.000" stroke-linecap="round" stroke-linejoin="round" d="M -31.837 603.976 Q -31.837 603.928 -31.854 603.810 Q -31.599 603.883 -32.105 603.792 Q -32.612 603.700 -32.898 604.493 Q -33.183 605.286 -33.237 605.848 Q -33.291 606.409 -33.131 606.600 Q -32.972 606.791 -32.937 606.807 Q -32.902 606.823 -32.856 606.861 Q -32.810 606.899 -32.863 606.865 Q -32.916 606.830 -32.696 606.952 Q -32.477 607.073 -32.364 607.180 Q -32.251 607.286 -32.312 607.221 Q -32.373 607.156 -32.354 607.189 Q -32.335 607.222 -32.214 607.394 Q -32.093 607.565 -32.096 607.686 Q -32.098 607.807 -32.184 608.110 Q -32.269 608.412 -33.073 608.917 Q -33.877 609.422 -34.026 609.537 "></path>
    <path id="STROKE_d7f6234f-1ad5-4823-9629-c1bfb2056b15" opacity="0.790" fill="none" stroke="#000000" stroke-width="1.616" stroke-opacity="1.000" stroke-linecap="round" stroke-linejoin="round" d="M -28.257 604.243 Q -28.299 604.025 -28.136 606.144 Q -27.972 608.262 -28.673 615.464 Q -28.515 615.539 -28.437 615.452 Q -28.359 615.365 -28.257 615.232 "></path>
    <path id="STROKE_3e78165d-4c9b-4915-9a8e-e894b8dbb7e0" opacity="0.790" fill="none" stroke="#000000" stroke-width="1.700" stroke-opacity="1.000" stroke-linecap="round" stroke-linejoin="round" d="M -27.069 604.243 Q -26.962 604.292 -26.652 604.177 Q -26.341 604.062 -25.993 604.318 Q -25.644 604.573 -25.435 604.918 Q -25.226 605.263 -25.179 605.392 Q -25.133 605.522 -25.171 605.602 Q -25.209 605.683 -25.155 606.101 Q -25.102 606.519 -25.840 607.305 Q -26.578 608.090 -27.568 608.285 Q -28.558 608.481 -28.690 608.449 "></path>
    <path id="STROKE_d69dcf62-2b4b-4e87-adf8-dc396cb57253" opacity="0.790" fill="none" stroke="#000000" stroke-width="1.610" stroke-opacity="1.000" stroke-linecap="round" stroke-linejoin="round" d="M -21.130 597.358 Q -21.130 597.342 -21.130 597.326 Q -20.865 597.502 -21.297 603.181 Q -21.729 608.859 -21.792 609.142 "></path>
    <path id="STROKE_14d47987-95ad-4300-bf7e-47b07bc85438" opacity="0.790" fill="none" stroke="#000000" stroke-width="1.700" stroke-opacity="1.000" stroke-linecap="round" stroke-linejoin="round" d="M -13.605 604.873 Q -13.704 604.852 -13.656 604.887 Q -13.607 604.922 -14.117 604.689 Q -14.626 604.456 -15.018 604.400 Q -15.409 604.343 -16.134 604.427 Q -16.860 604.510 -17.465 605.189 Q -18.071 605.868 -18.285 606.397 Q -18.498 606.926 -18.546 607.334 Q -18.593 607.742 -18.532 608.155 Q -18.471 608.568 -18.224 608.657 Q -17.978 608.746 -17.415 608.654 Q -16.853 608.562 -15.942 607.640 Q -15.032 606.719 -14.152 606.330 Q -14.164 606.278 -14.109 607.222 Q -14.055 608.166 -13.970 608.283 "></path>
    <path id="STROKE_90ad73cd-0162-4cd6-bf91-694297283d44" opacity="0.790" fill="none" stroke="#000000" stroke-width="1.700" stroke-opacity="1.000" stroke-linecap="round" stroke-linejoin="round" d="M -10.687 604.440 Q -10.401 604.506 -9.600 605.864 Q -8.799 607.221 -8.702 607.284 "></path>
    <path id="STROKE_8e2b4f22-7939-43e9-aa73-d51dc493f1bf" opacity="0.790" fill="none" stroke="#000000" stroke-width="1.648" stroke-opacity="1.000" stroke-linecap="round" stroke-linejoin="round" d="M -6.012 604.109 Q -5.781 604.391 -7.397 606.956 Q -9.012 609.522 -10.094 611.600 Q -11.177 613.679 -11.672 614.703 Q -12.167 615.728 -12.316 615.893 "></path>
    <path id="STROKE_3f4ca0ef-cc13-4182-810d-75926a7065dd" opacity="0.790" fill="none" stroke="#000000" stroke-width="1.700" stroke-opacity="1.000" stroke-linecap="round" stroke-linejoin="round" d="M 0.682 599.776 Q 0.843 599.497 1.502 599.496 Q 2.161 599.495 2.736 599.804 Q 3.310 600.114 3.456 600.250 Q 3.602 600.385 3.969 600.932 Q 4.336 601.478 4.350 602.820 Q 4.364 604.163 0.419 608.264 Q 0.107 608.516 4.382 607.744 Q 8.657 606.973 9.004 606.858 "></path>
    <path id="STROKE_0c685642-88d6-4fd0-b005-37cd66c55679" opacity="0.790" fill="none" stroke="#000000" stroke-width="1.648" stroke-opacity="1.000" stroke-linecap="round" stroke-linejoin="round" d="M -172.191 648.137 Q -172.080 648.144 -172.403 647.284 Q -172.896 647.296 -172.816 647.340 Q -173.357 647.747 -173.826 650.172 Q -174.295 652.596 -174.305 654.519 Q -174.315 656.442 -174.307 657.501 Q -174.298 658.561 -174.079 659.431 Q -173.859 660.302 -173.200 660.606 Q -172.541 660.909 -172.332 660.978 "></path>
    <path id="STROKE_3c23485f-f9af-45d5-84c3-d7395dbc4078" opacity="0.790" fill="none" stroke="#000000" stroke-width="1.700" stroke-opacity="1.000" stroke-linecap="round" stroke-linejoin="round" d="M -165.460 648.720 Q -165.460 648.664 -165.460 648.471 Q -165.581 648.799 -165.991 650.153 Q -166.401 651.506 -166.536 652.381 Q -166.671 653.255 -166.652 653.580 Q -166.633 653.904 -166.658 654.304 Q -166.683 654.704 -165.236 654.719 Q -163.789 654.734 -161.850 654.082 Q -159.912 653.429 -159.802 653.318 "></path>
    <path id="STROKE_a7c0510a-6bf5-4aed-b17a-b173afd05c78" opacity="0.790" fill="none" stroke="#000000" stroke-width="1.700" stroke-opacity="1.000" stroke-linecap="round" stroke-linejoin="round" d="M -162.839 650.563 Q -162.782 650.443 -163.147 652.904 Q -163.512 655.364 -163.223 656.766 Q -162.935 658.168 -162.839 658.361 "></path>
    <path id="STROKE_25a534ca-d176-4b2a-b47a-4e71355d0701" opacity="0.790" fill="none" stroke="#000000" stroke-width="1.563" stroke-opacity="1.000" stroke-linecap="round" stroke-linejoin="round" d="M -154.886 647.645 Q -154.835 648.312 -155.208 652.042 Q -155.581 655.773 -155.269 657.951 Q -154.957 660.128 -154.858 660.321 "></path>
    <path id="STROKE_09a201e7-5651-485f-876e-1c6071cb130d" opacity="0.790" fill="none" stroke="#000000" stroke-width="1.700" stroke-opacity="1.000" stroke-linecap="round" stroke-linejoin="round" d="M -148.211 649.599 Q -148.211 649.642 -148.211 649.350 Q -148.942 649.431 -150.201 650.507 Q -151.460 651.584 -151.993 652.191 Q -152.527 652.799 -152.641 653.162 Q -152.755 653.526 -152.708 653.913 Q -152.660 654.300 -151.816 654.671 Q -150.973 655.043 -150.011 655.111 Q -149.048 655.180 -148.868 655.220 "></path>
    <path id="STROKE_2c41e7a9-8121-4ffb-8102-1e310f0474d5" opacity="0.790" fill="none" stroke="#000000" stroke-width="1.700" stroke-opacity="1.000" stroke-linecap="round" stroke-linejoin="round" d="M -143.077 647.369 Q -142.925 647.443 -142.099 648.621 Q -141.274 649.799 -140.858 651.064 Q -140.443 652.328 -140.449 653.437 Q -140.455 654.545 -140.769 655.499 Q -141.082 656.452 -141.984 657.621 Q -142.886 658.790 -143.190 659.082 "></path>
    <path id="STROKE_ef544a90-3ed7-486d-aeb5-a0e7bca7ebc7" opacity="0.790" fill="none" stroke="#000000" stroke-width="1.654" stroke-opacity="1.000" stroke-linecap="round" stroke-linejoin="round" d="M 27.712 599.200 Q 27.646 599.017 27.109 599.504 Q 26.571 599.990 26.014 601.646 Q 25.456 603.301 25.223 604.478 Q 24.991 605.655 24.946 606.547 Q 24.902 607.440 24.972 608.293 Q 25.041 609.146 25.956 610.021 Q 26.871 610.897 27.104 611.103 "></path>
    <path id="STROKE_d61e0718-2d62-4d9a-8b15-fd2505e68f62" opacity="0.790" fill="none" stroke="#000000" stroke-width="1.700" stroke-opacity="1.000" stroke-linecap="round" stroke-linejoin="round" d="M 33.094 603.141 Q 33.257 602.944 33.664 602.874 Q 34.070 602.803 34.437 602.872 Q 34.803 602.940 35.032 603.165 Q 35.261 603.391 35.333 603.514 Q 35.405 603.637 35.569 603.827 Q 35.734 604.017 35.801 604.471 Q 35.868 604.925 35.794 605.776 Q 35.721 606.628 32.628 609.450 Q 32.322 609.548 34.770 609.120 Q 37.219 608.693 37.480 608.598 "></path>
    <path id="STROKE_011a2473-d20b-4ae1-bf57-884ed1af42aa" opacity="0.790" fill="none" stroke="#000000" stroke-width="1.675" stroke-opacity="1.000" stroke-linecap="round" stroke-linejoin="round" d="M 42.368 599.777 Q 42.864 599.891 42.415 605.435 Q 41.965 610.979 41.923 611.214 "></path>
    <path id="STROKE_3b19134b-648e-487c-afb5-b305e67c6cab" opacity="0.790" fill="none" stroke="#000000" stroke-width="1.700" stroke-opacity="1.000" stroke-linecap="round" stroke-linejoin="round" d="M 46.563 603.634 Q 46.563 603.564 46.563 603.109 Q 46.166 603.095 45.393 603.701 Q 44.620 604.306 44.237 604.890 Q 43.853 605.474 43.759 605.824 Q 43.664 606.173 43.710 606.479 Q 43.757 606.785 43.963 606.975 Q 44.168 607.165 46.221 607.446 Q 48.273 607.726 48.492 607.739 "></path>
    <path id="STROKE_72ffe8f6-0571-4dbd-9b02-dbec739159ff" opacity="0.790" fill="none" stroke="#000000" stroke-width="1.562" stroke-opacity="1.000" stroke-linecap="round" stroke-linejoin="round" d="M 54.262 597.934 Q 54.779 597.905 55.143 600.306 Q 55.507 602.707 55.605 604.282 Q 55.704 605.858 55.431 607.380 Q 55.158 608.903 54.063 610.809 Q 52.967 612.715 51.489 614.142 Q 50.010 615.569 49.707 615.818 "></path>
    <path id="STROKE_3c7dbacb-0dee-44f3-90b1-79baf78b2f38" opacity="0.790" fill="none" stroke="#009ef1" stroke-width="1.700" stroke-opacity="1.000" stroke-linecap="round" stroke-linejoin="round" d="M -110.317 679.800 Q -110.932 679.572 -110.699 679.662 Q -110.796 679.832 -110.824 680.147 Q -110.851 680.463 -110.870 682.201 Q -110.889 683.939 -110.875 685.544 Q -110.861 687.148 -110.775 688.098 Q -110.689 689.047 -110.592 692.054 Q -110.496 695.061 -110.503 697.427 Q -110.510 699.792 -110.621 701.025 Q -110.733 702.258 -110.657 705.928 Q -110.581 709.597 -110.480 713.200 Q -110.497 712.807 -110.455 712.633 Q -110.413 712.458 -110.346 712.183 "></path>
    <path id="STROKE_af437865-effc-4ac2-8cd3-5bacc3d81f97" opacity="0.790" fill="none" stroke="#009ef1" stroke-width="1.700" stroke-opacity="1.000" stroke-linecap="round" stroke-linejoin="round" d="M -110.727 679.143 Q -110.709 678.495 -110.688 678.727 Q -110.038 678.594 -110.219 678.632 Q -109.528 678.609 -109.692 678.619 Q -109.321 678.671 -104.877 678.657 Q -100.434 678.644 -97.585 678.760 Q -94.737 678.877 -92.929 679.081 Q -91.120 679.285 -89.918 679.290 Q -88.715 679.295 -86.629 678.946 Q -84.544 678.596 -82.862 678.466 Q -81.180 678.336 -78.995 677.887 Q -76.810 677.438 -75.677 677.228 Q -74.544 677.019 -74.194 677.043 Q -73.844 677.067 -72.701 676.980 Q -71.559 676.892 -70.441 676.852 Q -69.323 676.811 -68.849 676.821 Q -68.375 676.831 -68.142 676.833 Q -67.908 676.835 -67.670 676.855 Q -67.670 676.868 -67.677 676.937 Q -67.684 677.005 -67.698 677.045 "></path>
    <path id="STROKE_ce1fd1a9-7ed1-4952-ac73-cbb57917fb88" opacity="0.790" fill="none" stroke="#009ef1" stroke-width="1.595" stroke-opacity="1.000" stroke-linecap="round" stroke-linejoin="round" d="M -110.148 710.668 Q -110.148 710.652 -110.148 710.610 Q -110.162 710.610 -110.233 710.623 Q -110.233 711.075 -110.233 723.673 Q -110.233 723.660 -110.233 723.604 Q -110.233 723.548 -110.233 723.451 "></path>
    <path id="STROKE_3864af30-b1cf-47a7-b531-983501e4c82d" opacity="0.790" fill="none" stroke="#009ef1" stroke-width="1.677" stroke-opacity="1.000" stroke-linecap="round" stroke-linejoin="round" d="M -111.278 724.388 Q -111.370 724.014 -109.805 723.831 Q -108.239 723.649 -106.366 724.042 Q -104.494 724.435 -102.991 724.910 Q -101.488 725.384 -97.929 725.370 Q -94.370 725.356 -92.495 725.275 Q -90.620 725.195 -88.201 724.925 Q -85.782 724.655 -83.238 724.351 Q -80.693 724.047 -78.898 723.981 Q -77.102 723.916 -76.116 723.785 Q -75.129 723.654 -73.934 723.599 Q -72.739 723.544 -71.665 723.386 Q -70.591 723.229 -69.504 723.134 Q -68.416 723.040 -67.909 723.021 Q -67.401 723.002 -66.845 723.109 Q -66.288 723.216 -66.223 723.288 Q -66.158 723.360 -66.249 723.301 Q -66.341 723.243 -65.629 723.548 Q -65.629 723.562 -65.671 723.624 Q -65.713 723.686 -65.798 723.726 "></path>
    <path id="STROKE_39e06358-2f62-4c47-adc9-c3d65ae22013" opacity="0.790" fill="none" stroke="#009ef1" stroke-width="1.700" stroke-opacity="1.000" stroke-linecap="round" stroke-linejoin="round" d="M -58.716 677.647 Q -58.722 677.702 -58.719 677.631 Q -58.715 677.561 -58.683 677.442 Q -58.670 677.442 -58.627 677.442 Q -58.566 677.344 -58.716 677.635 Q -58.648 677.625 -58.947 677.674 Q -58.926 677.930 -58.914 677.846 Q -59.091 677.894 -58.239 677.908 Q -57.388 677.922 -56.886 677.895 Q -56.384 677.867 -55.504 678.032 Q -54.623 678.197 -53.935 678.230 Q -53.247 678.263 -51.365 678.245 Q -49.483 678.228 -48.441 678.246 Q -47.398 678.264 -45.594 678.325 Q -43.791 678.386 -42.844 678.381 Q -41.897 678.376 -40.317 678.266 Q -38.736 678.157 -37.523 678.062 Q -36.311 677.967 -34.453 677.995 Q -34.453 678.002 -34.485 678.021 Q -34.517 678.040 -34.581 678.072 "></path>
    <path id="STROKE_4035edf2-6e1e-4f9d-8fab-eeedc1f7f7a6" opacity="0.790" fill="none" stroke="#009ef1" stroke-width="1.676" stroke-opacity="1.000" stroke-linecap="round" stroke-linejoin="round" d="M -34.156 677.916 Q -34.156 677.836 -34.156 677.815 Q -34.231 677.791 -34.288 677.913 Q -34.345 678.035 -34.367 678.441 Q -34.389 678.846 -34.372 679.440 Q -34.354 680.033 -34.340 680.353 Q -34.326 680.673 -34.308 682.096 Q -34.289 683.520 -34.374 684.650 Q -34.458 685.779 -34.521 686.752 Q -34.585 687.726 -34.585 688.723 Q -34.585 689.721 -34.647 691.726 Q -34.710 693.730 -34.941 696.391 Q -35.172 699.051 -35.302 700.467 Q -35.433 701.882 -35.414 703.319 Q -35.395 704.755 -35.440 706.418 Q -35.484 708.082 -35.510 708.955 Q -35.535 709.828 -35.528 710.720 Q -35.521 711.613 -35.543 712.441 Q -35.565 713.269 -35.511 717.181 Q -35.457 721.094 -35.470 721.151 "></path>
    <path id="STROKE_0d2b3c59-198d-45c0-8c70-7329617be99e" opacity="0.790" fill="none" stroke="#009ef1" stroke-width="1.700" stroke-opacity="1.000" stroke-linecap="round" stroke-linejoin="round" d="M -59.181 723.322 Q -59.181 723.219 -59.181 723.239 Q -59.149 723.192 -59.155 723.194 Q -59.160 723.196 -59.156 723.180 Q -59.151 723.164 -59.143 723.155 Q -59.135 723.145 -57.251 723.228 Q -55.366 723.310 -53.647 723.318 Q -51.929 723.326 -51.090 723.396 Q -50.251 723.466 -49.373 723.388 Q -48.495 723.311 -48.006 723.288 Q -47.518 723.265 -47.403 723.241 Q -47.289 723.218 -46.177 723.292 Q -45.064 723.366 -44.336 723.452 Q -43.607 723.538 -43.210 723.550 Q -42.814 723.562 -42.070 723.474 Q -41.326 723.386 -39.959 723.328 Q -38.593 723.269 -37.830 723.276 Q -37.066 723.283 -36.575 723.281 Q -36.083 723.279 -34.723 723.322 Q -34.723 723.224 -34.723 723.227 Q -34.788 723.027 -34.793 723.015 Q -34.798 723.004 -34.808 722.992 Q -34.818 722.980 -34.841 722.768 Q -34.863 722.557 -35.022 721.180 Q -35.180 719.802 -35.213 719.648 "></path>
    <path id="STROKE_75815fd4-5e01-48bd-895e-0b90f6bbe810" opacity="0.790" fill="none" stroke="#009ef1" stroke-width="1.700" stroke-opacity="1.000" stroke-linecap="round" stroke-linejoin="round" d="M -110.702 683.784 Q -110.716 683.784 -110.808 683.784 Q -110.285 683.784 -110.451 683.784 Q -109.946 683.784 -110.066 683.784 Q -109.661 683.785 -109.692 683.798 Q -108.969 683.891 -106.584 683.887 Q -104.199 683.883 -102.437 684.172 Q -100.675 684.461 -99.544 684.552 Q -98.413 684.644 -95.974 684.613 Q -93.536 684.581 -90.938 684.560 Q -88.340 684.538 -86.700 684.661 Q -85.060 684.784 -83.850 684.762 Q -82.639 684.740 -82.147 684.775 Q -81.654 684.810 -79.787 684.766 Q -77.920 684.722 -75.592 684.544 Q -73.264 684.366 -71.980 684.204 Q -70.696 684.042 -69.666 684.028 Q -68.636 684.014 -67.807 684.060 Q -67.807 684.073 -67.864 684.143 Q -67.920 684.214 -68.033 684.282 "></path>
    <path id="STROKE_17c0b187-280f-44a6-af1a-205df2d72195" opacity="0.790" fill="none" stroke="#009ef1" stroke-width="1.700" stroke-opacity="1.000" stroke-linecap="round" stroke-linejoin="round" d="M -58.548 683.195 Q -58.548 683.189 -58.548 683.183 Q -58.555 683.183 -58.664 683.189 Q -58.683 683.293 -58.677 683.281 Q -58.677 683.293 -58.677 683.305 Q -58.498 683.346 -58.511 683.339 Q -58.285 683.339 -58.311 683.339 Q -58.085 683.339 -58.099 683.339 Q -58.119 683.331 -56.983 683.372 Q -55.848 683.414 -55.161 683.459 Q -54.475 683.505 -54.118 683.626 Q -53.761 683.748 -52.904 683.756 Q -52.047 683.764 -50.771 683.762 Q -49.495 683.761 -48.892 683.771 Q -48.289 683.781 -47.928 683.769 Q -47.568 683.757 -46.829 683.777 Q -46.091 683.798 -45.395 683.845 Q -44.699 683.892 -43.002 683.854 Q -41.306 683.817 -40.348 683.799 Q -39.389 683.781 -38.819 683.786 Q -38.250 683.791 -37.851 683.792 Q -37.453 683.793 -37.190 683.786 Q -36.928 683.779 -36.667 683.782 Q -36.407 683.785 -36.221 683.816 Q -36.036 683.846 -35.962 683.862 Q -35.889 683.878 -35.791 683.899 Q -35.693 683.921 -35.610 683.935 Q -35.526 683.949 -35.434 683.961 Q -35.342 683.973 -35.393 683.969 Q -35.443 683.965 -35.032 683.993 Q -35.065 683.987 -35.098 683.981 "></path>
    <path id="STROKE_51823f46-2bbb-44dd-88be-81a3181dd233" opacity="0.790" fill="none" stroke="#009ef1" stroke-width="1.700" stroke-opacity="1.000" stroke-linecap="round" stroke-linejoin="round" d="M -49.982 680.833 Q -49.926 680.780 -50.265 680.692 Q -50.265 680.686 -50.265 680.679 Q -50.289 680.804 -49.564 680.818 Q -48.838 680.831 -48.359 680.786 Q -47.880 680.740 -47.541 680.776 Q -47.202 680.813 -47.111 680.845 "></path>
    <path id="STROKE_94b665da-3739-4b5d-bf87-fa34cd430a39" opacity="0.790" fill="none" stroke="#009ef1" stroke-width="1.700" stroke-opacity="1.000" stroke-linecap="round" stroke-linejoin="round" d="M -44.231 680.218 Q -44.174 680.133 -44.306 682.137 Q -44.160 682.177 -44.125 682.151 Q -44.089 682.124 -44.036 682.092 "></path>
    <path id="STROKE_5ec174c9-4b10-4ba2-afd9-9eab1d2dd8ae" opacity="0.790" fill="none" stroke="#009ef1" stroke-width="1.700" stroke-opacity="1.000" stroke-linecap="round" stroke-linejoin="round" d="M -44.115 679.857 Q -43.954 679.824 -43.987 679.830 Q -44.121 679.852 -42.571 679.793 Q -41.021 679.735 -40.988 679.716 "></path>
    <path id="STROKE_ddcfa3dc-1a76-4396-b3c9-665938f2a053" opacity="0.790" fill="none" stroke="#009ef1" stroke-width="1.700" stroke-opacity="1.000" stroke-linecap="round" stroke-linejoin="round" d="M -40.642 679.677 Q -40.629 679.677 -40.527 679.677 Q -40.543 679.746 -40.612 680.800 Q -40.680 681.855 -40.691 681.887 "></path>
    <path id="STROKE_12a60620-bf2e-4374-8d29-c487d4ecde50" opacity="0.790" fill="none" stroke="#009ef1" stroke-width="1.700" stroke-opacity="1.000" stroke-linecap="round" stroke-linejoin="round" d="M -43.602 682.067 Q -43.613 682.067 -43.638 682.067 Q -43.670 682.024 -42.580 681.987 Q -41.490 681.950 -41.412 681.924 "></path>
    <path id="STROKE_473c5e95-3333-4743-99b7-2372518fbd3c" opacity="0.790" fill="none" stroke="#009ef1" stroke-width="1.700" stroke-opacity="1.000" stroke-linecap="round" stroke-linejoin="round" d="M -38.828 680.025 Q -38.828 680.018 -38.828 679.986 Q -38.882 679.729 -38.378 680.307 Q -37.875 680.886 -37.637 681.221 Q -37.400 681.555 -37.254 681.753 Q -37.108 681.951 -36.996 682.047 Q -36.884 682.142 -36.846 682.168 "></path>
    <path id="STROKE_3d5b0591-6910-4842-887e-19d09a5c9918" opacity="0.790" fill="none" stroke="#009ef1" stroke-width="1.686" stroke-opacity="1.000" stroke-linecap="round" stroke-linejoin="round" d="M -36.227 679.870 Q -36.217 679.870 -36.217 679.637 Q -36.406 679.651 -36.410 679.659 Q -36.415 679.666 -36.448 679.685 Q -36.481 679.703 -36.612 679.779 Q -36.742 679.854 -37.515 680.541 Q -38.287 681.228 -38.650 681.772 Q -39.014 682.316 -39.059 682.400 "></path>
    <path id="STROKE_a65b3a9a-bd02-4608-876b-82ede194c725" opacity="0.790" fill="none" stroke="#009ef1" stroke-width="1.081" stroke-opacity="1.000" stroke-linecap="round" stroke-linejoin="round" d="M -97.342 689.722 Q -98.012 690.028 -99.818 692.111 Q -101.624 694.194 -105.294 699.563 Q -108.965 704.933 -109.378 705.593 "></path>
    <path id="STROKE_d6ac6d1b-aae0-4f8c-9b60-bfc3e3660933" opacity="0.790" fill="none" stroke="#009ef1" stroke-width="1.046" stroke-opacity="1.000" stroke-linecap="round" stroke-linejoin="round" d="M -76.202 687.269 Q -75.955 687.161 -75.072 686.787 Q -74.681 687.064 -78.375 690.778 Q -82.069 694.492 -84.682 697.397 Q -87.296 700.302 -88.605 701.669 Q -89.913 703.036 -91.558 705.062 Q -93.203 707.088 -95.196 709.454 Q -97.189 711.819 -98.418 713.451 Q -99.647 715.082 -100.499 716.501 Q -101.352 717.920 -101.466 718.963 Q -101.580 720.007 -101.510 720.118 "></path>
    <path id="STROKE_9c79318c-65a0-40d8-88c7-e650e2a2eeb6" opacity="0.790" fill="none" stroke="#009ef1" stroke-width="1.031" stroke-opacity="1.000" stroke-linecap="round" stroke-linejoin="round" d="M -69.188 700.306 Q -69.869 700.299 -73.346 703.656 Q -76.822 707.013 -78.564 709.026 Q -80.305 711.039 -81.390 712.115 Q -82.475 713.191 -84.299 716.419 Q -86.122 719.647 -86.359 720.060 "></path>
    <path id="STROKE_1a99b43b-2702-450a-9bec-d41d4fc86cd3" opacity="0.790" fill="none" stroke="#009ef1" stroke-width="1.054" stroke-opacity="1.000" stroke-linecap="round" stroke-linejoin="round" d="M -49.969 686.986 Q -49.874 686.867 -50.230 687.172 Q -50.586 687.477 -51.160 688.193 Q -51.734 688.909 -52.018 689.210 Q -52.302 689.511 -53.093 690.555 Q -53.883 691.598 -54.510 692.540 Q -55.137 693.482 -55.562 694.020 Q -55.986 694.558 -56.614 695.533 Q -57.242 696.508 -57.657 697.172 Q -58.072 697.836 -58.397 698.855 Q -58.721 699.875 -58.779 700.099 "></path>
    <path id="STROKE_03f100a3-7878-4cda-9295-2fb640429373" opacity="0.790" fill="none" stroke="#009ef1" stroke-width="1.029" stroke-opacity="1.000" stroke-linecap="round" stroke-linejoin="round" d="M -39.302 690.131 Q -39.521 690.252 -39.946 690.301 Q -40.371 690.350 -42.582 692.974 Q -44.793 695.598 -46.200 697.296 Q -47.606 698.995 -48.281 699.758 Q -48.955 700.520 -49.263 700.906 Q -49.570 701.291 -51.445 703.435 Q -53.319 705.578 -54.430 706.910 Q -55.542 708.243 -56.165 709.029 Q -56.789 709.814 -57.276 710.496 Q -57.763 711.179 -57.956 711.467 "></path>
    <path id="STROKE_c4b17f0b-d38d-4e17-9609-65561d3bea47" opacity="0.790" fill="none" stroke="#009ef1" stroke-width="1.014" stroke-opacity="1.000" stroke-linecap="round" stroke-linejoin="round" d="M -38.828 705.583 Q -38.812 705.570 -39.357 705.999 Q -39.902 706.428 -41.188 707.947 Q -42.474 709.466 -43.183 710.256 Q -43.893 711.046 -44.260 711.452 Q -44.628 711.858 -45.423 712.793 Q -46.218 713.729 -47.112 714.765 Q -48.006 715.801 -48.466 716.313 Q -48.926 716.826 -50.150 718.359 Q -51.374 719.892 -52.109 720.858 Q -52.844 721.823 -53.244 722.404 Q -53.643 722.984 -53.832 723.295 Q -54.020 723.605 -54.226 723.939 "></path>
  </g>
</svg>